<?xml version="1.0" standalone="no"?>
<!DOCTYPE svg PUBLIC "-//W3C//DTD SVG 20010904//EN"
 "http://www.w3.org/TR/2001/REC-SVG-20010904/DTD/svg10.dtd">
<svg version="1.0" xmlns="http://www.w3.org/2000/svg"
 width="69.000000pt" height="69.000000pt" viewBox="0 0 69.000000 69.000000"
 preserveAspectRatio="xMidYMid meet">

<g transform="translate(0.000000,69.000000) scale(0.100000,-0.100000)"
fill="#000000" stroke="none">
<path d="M160 601 c0 -28 -3 -30 -42 -34 l-43 -4 43 -1 c40 -2 42 -4 42 -32 0
-29 -1 -30 -50 -30 -27 0 -50 -4 -50 -10 0 -5 23 -10 50 -10 l50 0 0 -56 c0
-73 24 -70 28 4 l3 52 50 0 c49 0 49 0 43 -27 -9 -38 -13 -43 -32 -44 -12 0
-9 -3 7 -10 31 -12 41 -2 51 50 8 46 6 51 -27 51 -22 0 -24 4 -21 37 l3 38
-37 -3 c-36 -3 -38 -2 -38 27 0 21 -5 31 -15 31 -10 0 -15 -10 -15 -29z m80
-71 c0 -25 -4 -30 -25 -30 -21 0 -25 5 -25 30 0 25 4 30 25 30 21 0 25 -5 25
-30z"/>
<path d="M484 588 l-9 -43 -60 -6 -60 -6 58 -1 c31 -1 57 -4 57 -7 0 -18 -38
-76 -74 -114 l-41 -44 34 19 c18 10 47 38 64 61 31 45 49 45 62 2 7 -22 25
-26 25 -5 0 8 -11 23 -25 34 -39 31 -33 52 15 52 l40 0 0 -42 c0 -67 -9 -88
-36 -88 -30 0 -31 -16 -1 -24 33 -9 55 25 63 94 4 33 5 63 3 67 -2 5 -26 6
-53 5 l-48 -4 7 34 c11 50 11 50 -1 54 -5 3 -14 -15 -20 -38z"/>
<path d="M266 590 c16 -15 33 -26 37 -23 12 7 -20 40 -45 46 -17 5 -16 1 8
-23z"/>
<path d="M411 585 c18 -31 39 -46 39 -29 0 14 -22 45 -40 54 -19 10 -19 9 1
-25z"/>
<path d="M440 284 c-14 -7 -35 -13 -47 -14 -22 0 -23 -3 -23 -105 0 -63 4
-105 10 -105 6 0 10 5 10 10 0 6 21 10 46 10 32 0 44 4 41 13 -2 8 -18 11 -45
9 l-42 -4 0 36 c0 36 0 36 45 36 25 0 45 4 45 9 0 15 -23 19 -41 8 -26 -16
-49 -1 -49 32 0 27 5 31 40 41 39 11 57 24 43 33 -5 3 -19 -1 -33 -9z"/>
<path d="M177 256 c31 -38 43 -44 43 -22 0 15 -46 56 -62 56 -6 0 3 -15 19
-34z"/>
<path d="M490 158 c0 -72 4 -118 10 -118 6 0 10 43 10 110 l0 110 35 0 35 0 0
-80 c0 -64 -3 -80 -15 -80 -20 0 -19 -16 2 -24 27 -11 32 4 34 103 l2 94 -57
1 -56 1 0 -117z"/>
<path d="M132 143 l3 -88 54 -3 c70 -4 80 0 73 34 -5 27 -5 27 -13 6 -7 -18
-16 -22 -54 -22 l-45 0 0 80 c0 49 -4 80 -10 80 -7 0 -10 -32 -8 -87z"/>
<path d="M90 187 c0 -7 -9 -29 -19 -50 -19 -38 -13 -59 9 -32 13 15 27 95 16
95 -3 0 -6 -6 -6 -13z"/>
<path d="M262 195 c29 -66 40 -85 47 -80 14 8 1 41 -26 67 -14 12 -24 19 -21
13z"/>
</g>
</svg>
